<mxfile host="app.diagrams.net" modified="2024-02-22T07:29:55.114Z" agent="Mozilla/5.0 (Windows NT 10.0; Win64; x64; rv:123.0) Gecko/20100101 Firefox/123.0" etag="tJpMkxxx8W1SJI77dxEe" version="23.0.2" type="device">
  <diagram name="Page-1" id="cqmL_9zQNPTdFRpahnD9">
    <mxGraphModel dx="739" dy="296" grid="1" gridSize="10" guides="1" tooltips="1" connect="1" arrows="1" fold="1" page="1" pageScale="1" pageWidth="3300" pageHeight="4681" math="0" shadow="0">
      <root>
        <mxCell id="0" />
        <mxCell id="1" parent="0" />
        <mxCell id="tv8MWVlUih8JM3i0Ld4L-4" value="展示层" style="swimlane;horizontal=0;whiteSpace=wrap;html=1;" vertex="1" parent="1">
          <mxGeometry x="310" y="120" width="200" height="140" as="geometry">
            <mxRectangle x="310" y="190" width="40" height="70" as="alternateBounds" />
          </mxGeometry>
        </mxCell>
        <mxCell id="tv8MWVlUih8JM3i0Ld4L-11" value="页面" style="rounded=0;whiteSpace=wrap;html=1;" vertex="1" parent="tv8MWVlUih8JM3i0Ld4L-4">
          <mxGeometry x="30" y="10" width="60" height="20" as="geometry" />
        </mxCell>
        <mxCell id="tv8MWVlUih8JM3i0Ld4L-12" value="页面" style="rounded=0;whiteSpace=wrap;html=1;" vertex="1" parent="tv8MWVlUih8JM3i0Ld4L-4">
          <mxGeometry x="120" y="10" width="60" height="20" as="geometry" />
        </mxCell>
        <mxCell id="tv8MWVlUih8JM3i0Ld4L-13" value="VO" style="rounded=1;whiteSpace=wrap;html=1;" vertex="1" parent="tv8MWVlUih8JM3i0Ld4L-4">
          <mxGeometry x="30" y="40" width="60" height="30" as="geometry" />
        </mxCell>
        <mxCell id="tv8MWVlUih8JM3i0Ld4L-14" value="VO" style="rounded=1;whiteSpace=wrap;html=1;" vertex="1" parent="tv8MWVlUih8JM3i0Ld4L-4">
          <mxGeometry x="120" y="40" width="60" height="30" as="geometry" />
        </mxCell>
        <mxCell id="tv8MWVlUih8JM3i0Ld4L-17" value="业务解释" style="rounded=0;whiteSpace=wrap;html=1;" vertex="1" parent="tv8MWVlUih8JM3i0Ld4L-4">
          <mxGeometry x="30" y="80" width="60" height="20" as="geometry" />
        </mxCell>
        <mxCell id="tv8MWVlUih8JM3i0Ld4L-18" value="业务解释" style="rounded=0;whiteSpace=wrap;html=1;" vertex="1" parent="tv8MWVlUih8JM3i0Ld4L-4">
          <mxGeometry x="120" y="80" width="60" height="20" as="geometry" />
        </mxCell>
        <mxCell id="tv8MWVlUih8JM3i0Ld4L-26" value="" style="endArrow=none;html=1;rounded=0;exitX=0.5;exitY=1;exitDx=0;exitDy=0;entryX=0.5;entryY=0;entryDx=0;entryDy=0;" edge="1" parent="tv8MWVlUih8JM3i0Ld4L-4" source="tv8MWVlUih8JM3i0Ld4L-11" target="tv8MWVlUih8JM3i0Ld4L-13">
          <mxGeometry width="50" height="50" relative="1" as="geometry">
            <mxPoint x="100" y="70" as="sourcePoint" />
            <mxPoint x="150" y="20" as="targetPoint" />
          </mxGeometry>
        </mxCell>
        <mxCell id="tv8MWVlUih8JM3i0Ld4L-27" value="" style="endArrow=none;html=1;rounded=0;exitX=0.5;exitY=1;exitDx=0;exitDy=0;entryX=0.5;entryY=0;entryDx=0;entryDy=0;" edge="1" parent="tv8MWVlUih8JM3i0Ld4L-4" source="tv8MWVlUih8JM3i0Ld4L-13" target="tv8MWVlUih8JM3i0Ld4L-17">
          <mxGeometry width="50" height="50" relative="1" as="geometry">
            <mxPoint x="70" y="40" as="sourcePoint" />
            <mxPoint x="70" y="50" as="targetPoint" />
            <Array as="points" />
          </mxGeometry>
        </mxCell>
        <mxCell id="tv8MWVlUih8JM3i0Ld4L-28" value="" style="endArrow=none;html=1;rounded=0;exitX=0.5;exitY=1;exitDx=0;exitDy=0;entryX=0.5;entryY=0;entryDx=0;entryDy=0;" edge="1" parent="tv8MWVlUih8JM3i0Ld4L-4" source="tv8MWVlUih8JM3i0Ld4L-12" target="tv8MWVlUih8JM3i0Ld4L-14">
          <mxGeometry width="50" height="50" relative="1" as="geometry">
            <mxPoint x="80" y="50" as="sourcePoint" />
            <mxPoint x="80" y="60" as="targetPoint" />
          </mxGeometry>
        </mxCell>
        <mxCell id="tv8MWVlUih8JM3i0Ld4L-29" value="" style="endArrow=none;html=1;rounded=0;exitX=0.541;exitY=1;exitDx=0;exitDy=0;entryX=0.545;entryY=0.014;entryDx=0;entryDy=0;exitPerimeter=0;entryPerimeter=0;" edge="1" parent="tv8MWVlUih8JM3i0Ld4L-4" source="tv8MWVlUih8JM3i0Ld4L-14" target="tv8MWVlUih8JM3i0Ld4L-18">
          <mxGeometry width="50" height="50" relative="1" as="geometry">
            <mxPoint x="90" y="60" as="sourcePoint" />
            <mxPoint x="90" y="70" as="targetPoint" />
          </mxGeometry>
        </mxCell>
        <mxCell id="tv8MWVlUih8JM3i0Ld4L-5" value="业务逻辑层" style="swimlane;horizontal=0;whiteSpace=wrap;html=1;" vertex="1" parent="1">
          <mxGeometry x="310" y="260" width="200" height="130" as="geometry">
            <mxRectangle x="310" y="330" width="40" height="90" as="alternateBounds" />
          </mxGeometry>
        </mxCell>
        <mxCell id="tv8MWVlUih8JM3i0Ld4L-9" value="业务处理" style="rounded=1;whiteSpace=wrap;html=1;" vertex="1" parent="tv8MWVlUih8JM3i0Ld4L-5">
          <mxGeometry x="40" y="50" width="120" height="20" as="geometry" />
        </mxCell>
        <mxCell id="tv8MWVlUih8JM3i0Ld4L-7" value="数据访问层" style="swimlane;horizontal=0;whiteSpace=wrap;html=1;" vertex="1" parent="1">
          <mxGeometry x="310" y="390" width="200" height="310" as="geometry" />
        </mxCell>
        <mxCell id="tv8MWVlUih8JM3i0Ld4L-19" value="PO" style="rounded=1;whiteSpace=wrap;html=1;" vertex="1" parent="tv8MWVlUih8JM3i0Ld4L-7">
          <mxGeometry x="110" y="110" width="50" height="15" as="geometry" />
        </mxCell>
        <mxCell id="tv8MWVlUih8JM3i0Ld4L-21" value="DAO" style="rounded=1;whiteSpace=wrap;html=1;" vertex="1" parent="tv8MWVlUih8JM3i0Ld4L-7">
          <mxGeometry x="40" y="230" width="120" height="20" as="geometry" />
        </mxCell>
        <mxCell id="tv8MWVlUih8JM3i0Ld4L-20" value="PO" style="rounded=1;whiteSpace=wrap;html=1;" vertex="1" parent="tv8MWVlUih8JM3i0Ld4L-7">
          <mxGeometry x="40" y="110" width="50" height="15" as="geometry" />
        </mxCell>
        <mxCell id="tv8MWVlUih8JM3i0Ld4L-106" value="DataBase" style="shape=cylinder;whiteSpace=wrap;html=1;boundedLbl=1;backgroundOutline=1;" vertex="1" parent="tv8MWVlUih8JM3i0Ld4L-7">
          <mxGeometry x="70" y="270" width="60" height="30" as="geometry" />
        </mxCell>
        <mxCell id="tv8MWVlUih8JM3i0Ld4L-39" value="" style="endArrow=none;html=1;rounded=0;entryX=0.5;entryY=1;entryDx=0;entryDy=0;exitX=0.5;exitY=0;exitDx=0;exitDy=0;" edge="1" parent="tv8MWVlUih8JM3i0Ld4L-7" source="tv8MWVlUih8JM3i0Ld4L-106" target="tv8MWVlUih8JM3i0Ld4L-21">
          <mxGeometry width="50" height="50" relative="1" as="geometry">
            <mxPoint x="100" y="60" as="sourcePoint" />
            <mxPoint x="150" y="10" as="targetPoint" />
          </mxGeometry>
        </mxCell>
        <mxCell id="tv8MWVlUih8JM3i0Ld4L-114" value="" style="endArrow=none;html=1;rounded=0;exitX=0.5;exitY=1;exitDx=0;exitDy=0;entryX=0.5;entryY=0;entryDx=0;entryDy=0;" edge="1" parent="tv8MWVlUih8JM3i0Ld4L-7" source="tv8MWVlUih8JM3i0Ld4L-20" target="tv8MWVlUih8JM3i0Ld4L-21">
          <mxGeometry width="50" height="50" relative="1" as="geometry">
            <mxPoint x="260" y="220" as="sourcePoint" />
            <mxPoint x="310" y="170" as="targetPoint" />
            <Array as="points">
              <mxPoint x="65" y="180" />
              <mxPoint x="100" y="180" />
            </Array>
          </mxGeometry>
        </mxCell>
        <mxCell id="tv8MWVlUih8JM3i0Ld4L-8" value="BO" style="ellipse;whiteSpace=wrap;html=1;" vertex="1" parent="1">
          <mxGeometry x="380" y="380" width="60" height="20" as="geometry" />
        </mxCell>
        <mxCell id="tv8MWVlUih8JM3i0Ld4L-30" value="" style="endArrow=none;html=1;rounded=0;exitX=0.5;exitY=1;exitDx=0;exitDy=0;entryX=0.5;entryY=0;entryDx=0;entryDy=0;" edge="1" parent="1" source="tv8MWVlUih8JM3i0Ld4L-17" target="tv8MWVlUih8JM3i0Ld4L-10">
          <mxGeometry width="50" height="50" relative="1" as="geometry">
            <mxPoint x="380" y="290" as="sourcePoint" />
            <mxPoint x="380" y="300" as="targetPoint" />
            <Array as="points">
              <mxPoint x="370" y="240" />
              <mxPoint x="410" y="240" />
            </Array>
          </mxGeometry>
        </mxCell>
        <mxCell id="tv8MWVlUih8JM3i0Ld4L-31" value="" style="endArrow=none;html=1;rounded=0;exitX=0.5;exitY=1;exitDx=0;exitDy=0;entryX=0.5;entryY=0;entryDx=0;entryDy=0;" edge="1" parent="1" source="tv8MWVlUih8JM3i0Ld4L-18" target="tv8MWVlUih8JM3i0Ld4L-10">
          <mxGeometry width="50" height="50" relative="1" as="geometry">
            <mxPoint x="390" y="300" as="sourcePoint" />
            <mxPoint x="410" y="320" as="targetPoint" />
            <Array as="points">
              <mxPoint x="460" y="240" />
              <mxPoint x="410" y="240" />
            </Array>
          </mxGeometry>
        </mxCell>
        <mxCell id="tv8MWVlUih8JM3i0Ld4L-33" value="" style="endArrow=none;html=1;rounded=0;exitX=0.5;exitY=1;exitDx=0;exitDy=0;entryX=0.5;entryY=0;entryDx=0;entryDy=0;" edge="1" parent="1" source="tv8MWVlUih8JM3i0Ld4L-9" target="tv8MWVlUih8JM3i0Ld4L-8">
          <mxGeometry width="50" height="50" relative="1" as="geometry">
            <mxPoint x="400" y="310" as="sourcePoint" />
            <mxPoint x="400" y="320" as="targetPoint" />
            <Array as="points" />
          </mxGeometry>
        </mxCell>
        <mxCell id="tv8MWVlUih8JM3i0Ld4L-34" value="" style="endArrow=none;html=1;rounded=0;exitX=0.5;exitY=1;exitDx=0;exitDy=0;entryX=0.5;entryY=0;entryDx=0;entryDy=0;" edge="1" parent="1" source="tv8MWVlUih8JM3i0Ld4L-8" target="tv8MWVlUih8JM3i0Ld4L-20">
          <mxGeometry width="50" height="50" relative="1" as="geometry">
            <mxPoint x="410" y="320" as="sourcePoint" />
            <mxPoint x="410" y="330" as="targetPoint" />
            <Array as="points">
              <mxPoint x="410" y="440" />
              <mxPoint x="375" y="440" />
            </Array>
          </mxGeometry>
        </mxCell>
        <mxCell id="tv8MWVlUih8JM3i0Ld4L-35" value="" style="endArrow=none;html=1;rounded=0;exitX=0.5;exitY=0;exitDx=0;exitDy=0;entryX=0.5;entryY=1;entryDx=0;entryDy=0;" edge="1" parent="1" source="tv8MWVlUih8JM3i0Ld4L-19" target="tv8MWVlUih8JM3i0Ld4L-8">
          <mxGeometry width="50" height="50" relative="1" as="geometry">
            <mxPoint x="410" y="480" as="sourcePoint" />
            <mxPoint x="410" y="410" as="targetPoint" />
            <Array as="points">
              <mxPoint x="445" y="440" />
              <mxPoint x="410" y="440" />
            </Array>
          </mxGeometry>
        </mxCell>
        <mxCell id="tv8MWVlUih8JM3i0Ld4L-10" value="DTO" style="ellipse;whiteSpace=wrap;html=1;" vertex="1" parent="1">
          <mxGeometry x="380" y="250" width="60" height="20" as="geometry" />
        </mxCell>
        <mxCell id="tv8MWVlUih8JM3i0Ld4L-32" value="" style="endArrow=none;html=1;rounded=0;entryX=0.49;entryY=1;entryDx=0;entryDy=0;entryPerimeter=0;exitX=0.5;exitY=0;exitDx=0;exitDy=0;" edge="1" parent="1" source="tv8MWVlUih8JM3i0Ld4L-9" target="tv8MWVlUih8JM3i0Ld4L-10">
          <mxGeometry width="50" height="50" relative="1" as="geometry">
            <mxPoint x="410" y="360" as="sourcePoint" />
            <mxPoint x="460" y="320" as="targetPoint" />
          </mxGeometry>
        </mxCell>
        <mxCell id="tv8MWVlUih8JM3i0Ld4L-111" value="&lt;h4&gt;&lt;font style=&quot;font-size: 10px;&quot;&gt;&lt;strong&gt;VO:Value Object&lt;/strong&gt;&lt;/font&gt;&lt;/h4&gt;&lt;p&gt;&lt;font style=&quot;font-size: 12px;&quot;&gt;展示用的数据,创建之后不可修改&lt;br&gt;可以理解为在客户端的数据,&lt;br&gt;比如APP展示的数据(不是接收的数据,接收的数据也叫DTO)&lt;/font&gt;&lt;/p&gt;&lt;h4&gt;&lt;font style=&quot;font-size: 10px;&quot;&gt;&lt;strong&gt;DTO(Data Transfer Object)&lt;/strong&gt;&lt;/font&gt;&lt;/h4&gt;&lt;p&gt;&lt;font style=&quot;font-size: 12px;&quot;&gt;一种两个&lt;strong&gt;不同子系统&lt;/strong&gt;的传输设计模式,&lt;br&gt;通常封装数据,然后在两个不同的应用(层级)传递&lt;br&gt;简单的对象,不包含业务逻辑&lt;br&gt;在SpringBoot服务器中,controller中定义的对象就是DTO(框架会自动将JSON转成DTO)&lt;br&gt;展示不复杂的业务,VO可以直接用DTO替代.&lt;/font&gt;&lt;/p&gt;&lt;p&gt;&lt;font style=&quot;font-size: 10px;&quot;&gt;&lt;/font&gt;&lt;/p&gt;&lt;h3&gt;&lt;font style=&quot;font-size: 10px;&quot;&gt;&lt;strong&gt;BO(Business Object)&lt;/strong&gt;&lt;/font&gt;&lt;/h3&gt;&lt;p&gt;&lt;font style=&quot;font-size: 12px;&quot;&gt;BO就是PO的组合,封装业务数据,表示真实实体或概念.&lt;br&gt;除了get，set方法以外,也包含方法能够计算它内部的数据&lt;br&gt;DTO和BO也可以合并成一个&lt;br&gt;BO是业务内部处理:为了进行业务计算需要辅助数据，或者是一个业务有多个对外的接口，BO可能会含有很多接口对外所不需要的数据&lt;br&gt;DTO对外提供数据,需要在BO的基础上修改数据.&lt;/font&gt;&lt;/p&gt;&lt;h3&gt;&lt;font style=&quot;font-size: 10px;&quot;&gt;PO&lt;strong&gt;(Persistent Object)&lt;/strong&gt;&lt;/font&gt;&lt;/h3&gt;&lt;div&gt;&lt;font style=&quot;font-size: 12px;&quot;&gt;一个PO的数据结构对应着库中表的结构，表中的一条记录就是一个PO对象&lt;br&gt;通常PO里面除了get，set之外没有别的方法&lt;br&gt;对于PO来说，数量是相对固定的，一定不会超过数据库表的数量&lt;br&gt;与Entity概念是一致的&lt;/font&gt;&lt;/div&gt;&lt;h4&gt;&lt;font style=&quot;font-size: 10px;&quot;&gt;DAO(&lt;strong&gt;Data Access Object)&lt;/strong&gt;&lt;/font&gt;&lt;/h4&gt;&lt;p&gt;&lt;font style=&quot;font-size: 12px;&quot;&gt;一种访问数据库设计模式&lt;br&gt;提供和数据库访问的接口,通常有(Create,Read,Update,Delete)&lt;/font&gt;&lt;/p&gt;" style="text;html=1;strokeColor=none;fillColor=none;spacing=5;spacingTop=-20;whiteSpace=wrap;overflow=hidden;rounded=0;" vertex="1" parent="1">
          <mxGeometry x="510" y="120" width="330" height="600" as="geometry" />
        </mxCell>
        <mxCell id="tv8MWVlUih8JM3i0Ld4L-115" value="" style="endArrow=none;html=1;rounded=0;entryX=0.5;entryY=1;entryDx=0;entryDy=0;" edge="1" parent="1" target="tv8MWVlUih8JM3i0Ld4L-19">
          <mxGeometry width="50" height="50" relative="1" as="geometry">
            <mxPoint x="410" y="570" as="sourcePoint" />
            <mxPoint x="620" y="560" as="targetPoint" />
            <Array as="points">
              <mxPoint x="445" y="570" />
            </Array>
          </mxGeometry>
        </mxCell>
      </root>
    </mxGraphModel>
  </diagram>
</mxfile>
